<svg xmlns="http://www.w3.org/2000/svg" viewBox="0 0 1200 300" fill="none">
  <rect width="1200" height="300" fill="#0c1618"/>
  <!-- Subtle grid -->
  <g opacity="0.035" stroke="#4ea8ab" stroke-width="0.5">
    <line x1="0" y1="50" x2="1200" y2="50"/><line x1="0" y1="100" x2="1200" y2="100"/>
    <line x1="0" y1="150" x2="1200" y2="150"/><line x1="0" y1="200" x2="1200" y2="200"/>
    <line x1="0" y1="250" x2="1200" y2="250"/>
    <line x1="100" y1="0" x2="100" y2="300"/><line x1="200" y1="0" x2="200" y2="300"/>
    <line x1="300" y1="0" x2="300" y2="300"/><line x1="400" y1="0" x2="400" y2="300"/>
    <line x1="500" y1="0" x2="500" y2="300"/><line x1="600" y1="0" x2="600" y2="300"/>
    <line x1="700" y1="0" x2="700" y2="300"/><line x1="800" y1="0" x2="800" y2="300"/>
    <line x1="900" y1="0" x2="900" y2="300"/><line x1="1000" y1="0" x2="1000" y2="300"/>
    <line x1="1100" y1="0" x2="1100" y2="300"/>
  </g>
  <!-- Large shield icon (centered, paths only) -->
  <g transform="translate(540, 30) scale(1.2)" fill="#0d7377" opacity="0.85">
    <path d="M50 0L0 10C0 10 0 50 0 65C0 100 22 132 50 145C78 132 100 100 100 65C100 50 100 10 100 10L50 0ZM50 75V15L90 23V65C90 92 74 117 50 130V75Z"/>
  </g>
  <!-- "VAULT" spelled with geometric path letters -->
  <g transform="translate(310, 205)" fill="#e0eeef">
    <!-- V -->
    <path d="M0 0L22 0L40 55L58 0L80 0L52 75L28 75Z"/>
    <!-- A -->
    <path d="M95 75L117 0L143 0L165 75L143 75L138 58L122 58L117 75ZM126 42L134 42L130 25Z"/>
    <!-- U -->
    <path d="M180 0L200 0L200 50C200 63 207 68 215 68C223 68 230 63 230 50L230 0L250 0L250 52C250 72 236 82 215 82C194 82 180 72 180 52Z"/>
    <!-- L -->
    <path d="M265 0L285 0L285 58L325 58L325 75L265 75Z"/>
    <!-- T -->
    <path d="M340 0L410 0L410 17L385 17L385 75L365 75L365 17L340 17Z"/>
  </g>
  <!-- Accent line -->
  <rect x="420" y="195" width="360" height="1.5" fill="#0d7377" opacity="0.5"/>
  <!-- Bottom border -->
  <rect x="0" y="297" width="1200" height="3" fill="#0d7377" opacity="0.7"/>
</svg>
