<svg xmlns="http://www.w3.org/2000/svg" viewBox="0 0 1200 320" fill="none">
  <defs>
    <linearGradient id="bg" x1="0" y1="0" x2="1200" y2="320" gradientUnits="userSpaceOnUse">
      <stop offset="0%" stop-color="#0a1a1b"/>
      <stop offset="100%" stop-color="#0d2627"/>
    </linearGradient>
    <linearGradient id="accent" x1="0" y1="0" x2="300" y2="0" gradientUnits="userSpaceOnUse">
      <stop offset="0%" stop-color="#0d7377"/>
      <stop offset="100%" stop-color="#14a3a8"/>
    </linearGradient>
  </defs>
  <rect width="1200" height="320" rx="12" fill="url(#bg)"/>
  <!-- Grid pattern -->
  <g opacity="0.04" stroke="#fff" stroke-width="0.5">
    <line x1="0" y1="40" x2="1200" y2="40"/><line x1="0" y1="80" x2="1200" y2="80"/>
    <line x1="0" y1="120" x2="1200" y2="120"/><line x1="0" y1="160" x2="1200" y2="160"/>
    <line x1="0" y1="200" x2="1200" y2="200"/><line x1="0" y1="240" x2="1200" y2="240"/>
    <line x1="0" y1="280" x2="1200" y2="280"/>
    <line x1="60" y1="0" x2="60" y2="320"/><line x1="120" y1="0" x2="120" y2="320"/>
    <line x1="180" y1="0" x2="180" y2="320"/><line x1="240" y1="0" x2="240" y2="320"/>
    <line x1="300" y1="0" x2="300" y2="320"/><line x1="360" y1="0" x2="360" y2="320"/>
    <line x1="420" y1="0" x2="420" y2="320"/><line x1="480" y1="0" x2="480" y2="320"/>
    <line x1="540" y1="0" x2="540" y2="320"/><line x1="600" y1="0" x2="600" y2="320"/>
    <line x1="660" y1="0" x2="660" y2="320"/><line x1="720" y1="0" x2="720" y2="320"/>
    <line x1="780" y1="0" x2="780" y2="320"/><line x1="840" y1="0" x2="840" y2="320"/>
    <line x1="900" y1="0" x2="900" y2="320"/><line x1="960" y1="0" x2="960" y2="320"/>
    <line x1="1020" y1="0" x2="1020" y2="320"/><line x1="1080" y1="0" x2="1080" y2="320"/>
    <line x1="1140" y1="0" x2="1140" y2="320"/>
  </g>
  <!-- Shield icon -->
  <g transform="translate(506, 60)">
    <path d="M94 8L50 0L6 8C3 8.6 0 11.2 0 14.4V57.6C0 90 21 120 50 130C79 120 100 90 100 57.6V14.4C100 11.2 97 8.6 94 8ZM50 70V20L88 27V57.6C88 83 72 106 50 115V70Z" fill="url(#accent)" opacity="0.9"/>
  </g>
  <!-- Title -->
  <text x="600" y="225" text-anchor="middle" font-family="'SF Pro Display','Segoe UI',system-ui,sans-serif" font-size="56" font-weight="700" letter-spacing="14" fill="#e8f0f0">VAULT</text>
  <!-- Tagline -->
  <text x="600" y="268" text-anchor="middle" font-family="'SF Pro Text','Segoe UI',system-ui,sans-serif" font-size="16" font-weight="400" letter-spacing="4" fill="#6ba3a5">ENCRYPTED DOCUMENT VAULT</text>
  <!-- Bottom accent line -->
  <rect x="480" y="290" width="240" height="2" rx="1" fill="url(#accent)" opacity="0.6"/>
</svg>
